<svg width="173" height="89" viewBox="0 0 173 89" fill="none" xmlns="http://www.w3.org/2000/svg">
<path d="M0.839844 87L28.4375 2.44922H51.875V22.6055H43.7891L26.9727 87H0.839844ZM18.1836 70.1836L23.3398 52.6641H64.707L69.8633 70.1836H18.1836ZM61.0742 87L44.2578 22.6055V2.44922H59.6094L87.207 87H61.0742Z" fill="black"/>
<path d="M129.453 88.5234C120.742 88.5234 113.203 86.7656 106.836 83.25C100.469 79.6953 95.5469 74.6367 92.0703 68.0742C88.6328 61.5117 86.9141 53.7383 86.9141 44.7539V44.6367C86.9141 35.6523 88.6523 27.8984 92.1289 21.375C95.6055 14.8125 100.527 9.77344 106.895 6.25781C113.262 2.70312 120.781 0.925781 129.453 0.925781C138.203 0.925781 145.762 2.70312 152.129 6.25781C158.535 9.8125 163.457 14.8516 166.895 21.375C170.371 27.8984 172.109 35.6523 172.109 44.6367V44.7539C172.109 53.7383 170.371 61.5117 166.895 68.0742C163.457 74.5977 158.555 79.6367 152.188 83.1914C145.82 86.7461 138.242 88.5234 129.453 88.5234ZM129.453 68.25C133.047 68.25 136.133 67.293 138.711 65.3789C141.289 63.4648 143.281 60.75 144.688 57.2344C146.094 53.7188 146.797 49.5586 146.797 44.7539V44.6367C146.797 39.793 146.074 35.6328 144.629 32.1562C143.223 28.6406 141.211 25.9453 138.594 24.0703C136.016 22.1562 132.969 21.1992 129.453 21.1992C126.016 21.1992 122.988 22.1367 120.371 24.0117C117.793 25.8867 115.781 28.582 114.336 32.0977C112.93 35.5742 112.227 39.7539 112.227 44.6367V44.7539C112.227 49.5977 112.93 53.7773 114.336 57.293C115.781 60.8086 117.793 63.5234 120.371 65.4375C122.949 67.3125 125.977 68.25 129.453 68.25Z" fill="#F4A63F"/>
</svg>
